<svg id="Layer_1" data-name="Layer 1" xmlns="http://www.w3.org/2000/svg" viewBox="0 0 428.15 157.68"><defs><style>.cls-1{fill:#fafafa;}</style></defs><title>logo_blanco</title><path class="cls-1" d="M228.34,70.86Q237,80.22,237,96.57V144.2H208.4v-44c0-4.39-1.22-7.79-3.65-10.23A13.26,13.26,0,0,0,195,86.35q-6.44,0-10.16,3.72t-3.72,10.59V144.2H152.45v-44c0-4.39-1.22-7.79-3.66-10.23s-5.69-3.65-9.78-3.65q-6.44,0-10.16,3.72t-3.72,10.59V144.2H96.35v-82h28.78V74.81a25.68,25.68,0,0,1,9.79-9.72,29.32,29.32,0,0,1,14.75-3.58,31.68,31.68,0,0,1,16.22,4.09,28.32,28.32,0,0,1,11,11.69,32.61,32.61,0,0,1,11.4-11.47,30.3,30.3,0,0,1,15.92-4.31q15.48,0,24.18,9.35"/><path class="cls-1" d="M404.12,70.94q8,9.42,8,25.63V144.2H383.67v-44q0-7.16-3.73-11.18a13,13,0,0,0-10-4,13.14,13.14,0,0,0-10.22,4.17c-2.54,2.77-3.8,6.6-3.8,11.46V144.2H327.13v-82h28.78V76a26.44,26.44,0,0,1,10.23-10.52,30.54,30.54,0,0,1,15.77-3.95q14.18,0,22.21,9.43"/><path class="cls-1" d="M281.29,41.74A12.71,12.71,0,1,0,268.58,29a12.71,12.71,0,0,0,12.71,12.71"/><path class="cls-1" d="M315.36,87.17,297.23,47.45a5.68,5.68,0,0,0-5.45-3.1h-21a5.68,5.68,0,0,0-5.45,3.1L247.22,87.17a5.44,5.44,0,0,0,2.68,7.21,5.52,5.52,0,0,0,2.26.49,5.44,5.44,0,0,0,5-3.18l8.77-19.22v20.7s0,.07,0,.1v46.91a6.53,6.53,0,0,0,13.05,0V101.29h4.76v38.89a6.53,6.53,0,0,0,13.05,0V93.27s0,0,0-.08V72.47l8.77,19.22a5.44,5.44,0,0,0,4.95,3.18,5.55,5.55,0,0,0,2.26-.49,5.44,5.44,0,0,0,2.68-7.21"/><path class="cls-1" d="M41.69,42.29A12.65,12.65,0,1,0,29,29.64,12.65,12.65,0,0,0,41.69,42.29"/><path class="cls-1" d="M57.55,48a5.39,5.39,0,0,0-4.83-3.12H30.64A5.37,5.37,0,0,0,25.83,48l-18,39.53A5.41,5.41,0,0,0,17.62,92l5.62-12.31-4.89,23a2.64,2.64,0,0,0,2.57,3.18h5.42v34.36a6.49,6.49,0,1,0,13,0V105.88h4.74v34.36a6.5,6.5,0,1,0,13,0V105.88h5.4A2.64,2.64,0,0,0,65,102.7l-4.9-23.07L65.75,92a5.41,5.41,0,0,0,9.84-4.5Z"/><path class="cls-1" d="M96.65,12.68c-13,0-23.5,6.94-23.5,15.5a11,11,0,0,0,1.57,5.56c-.47,3.45-1.52,7.41-3.85,7.45-3.45.06,5.79,2.28,10.93-1a31.62,31.62,0,0,0,14.85,3.49c13,0,23.5-6.94,23.5-15.5s-10.52-15.5-23.5-15.5"/></svg>